Coordinates
nRows=6
nColumns=38

# SIMM Motion File Header:
name Coordinates
datacolumns 38
datarows 6
otherdata 1
range 2.07200000000000010000 2.07700000000000000000

Units are S.I. units (second, meters, Newtons, ...)
Angles are in degrees.

endheader
time	pelvis_tilt	pelvis_list	pelvis_rotation	pelvis_tx	pelvis_ty	pelvis_tz	hip_flexion_r	hip_adduction_r	hip_rotation_r	knee_angle_r	ankle_angle_r	subtalar_angle_r	mtp_angle_r	hip_flexion_l	hip_adduction_l	hip_rotation_l	knee_angle_l	ankle_angle_l	subtalar_angle_l	mtp_angle_l	lumbar_extension	lumbar_bending	lumbar_rotation	arm_flex_r	arm_add_r	arm_rot_r	elbow_flex_r	pro_sup_r	wrist_flex_r	wrist_dev_r	arm_flex_l	arm_add_l	arm_rot_l	elbow_flex_l	pro_sup_l	wrist_flex_l	wrist_dev_l
      2.07200000000000010000	     -5.37654939897221240000	     -2.62751907395639120000	      5.51580022222163710000	      0.70591949853370384000	      0.96392624357829115000	     -0.32958697967335315000	     50.15455631071828400000	     -1.17906660502448420000	    -11.44867289085107500000	   -121.69550706344653000000	     -4.09067427111442590000	      0.00000000000012571996	      0.00000000000012443266	      0.23773950266618948000	     -0.63298137529762211000	     -2.57935674155191920000	    -24.96397357649451700000	      9.30431040562069000000	     -0.00000000000003555979	      0.00000000000005454135	     -5.52281922759670520000	      0.06064536275741563800	    -16.18750373220594000000	    -16.57498084101224500000	    -20.96579331439053100000	     13.41373319841614100000	     41.18879357601886000000	     76.83200174705636700000	      0.00000000000002180144	      0.00000000000008091471	      2.36101144916083920000	    -36.41738536061251400000	     22.71253898688243900000	    101.66503867624905000000	     86.90112667253421800000	     -0.00000000000002060884	     -0.00000000000002762100
      2.07300000000000000000	     -5.29292869142814220000	     -2.70316465710371600000	      5.47839005532682850000	      0.70607996675766194000	      0.96465780778351573000	     -0.32956600045013262000	     50.30987047648168400000	     -1.04247889939056250000	    -11.42709897464735200000	   -121.17109423317908000000	     -4.03031252461410270000	      0.00000000000012602831	      0.00000000000012470173	     -0.35421471158757301000	     -0.75605535686530689000	     -2.62410865104143330000	    -24.49111493298898200000	      8.68753024560586340000	     -0.00000000000003551162	      0.00000000000005590287	     -5.59740401704377620000	      0.18892431089416040000	    -16.27017861923981500000	    -16.73872446302121400000	    -21.07441768132096600000	     13.47369347937647700000	     41.21263039232818700000	     76.74394628425660900000	      0.00000000000002204126	      0.00000000000008103907	      2.48182431782008050000	    -36.30153929708578200000	     22.56890208584036000000	    101.94418619114836000000	     86.80048128183369700000	     -0.00000000000002066794	     -0.00000000000002769731
      2.07400000000000030000	     -5.21176976285121900000	     -2.78020796376411510000	      5.44129994272765850000	      0.70624739588290009000	      0.96539013400124751000	     -0.32954683449096334000	     50.46023704865555700000	     -0.90686527777684578000	    -11.40786364763174800000	   -120.63893716170462000000	     -3.97177460279085670000	      0.00000000000012634033	      0.00000000000012497019	     -0.94147393868602824000	     -0.87968636313926729000	     -2.67122849689582780000	    -24.01818557194019400000	      8.05326977375447410000	     -0.00000000000003546109	      0.00000000000005720561	     -5.66788325929606350000	      0.31876622976125807000	    -16.35175820328431200000	    -16.90469548091536500000	    -21.18476608486617600000	     13.53236921119987600000	     41.24162816911621800000	     76.66144907127548400000	      0.00000000000002227392	      0.00000000000008116895	      2.59985139970920280000	    -36.18625110255849400000	     22.42832692688297400000	    102.22528006567276000000	     86.69375281289593700000	     -0.00000000000002072669	     -0.00000000000002777649
      2.07500000000000020000	     -5.13321000453618570000	     -2.85863984128962570000	      5.40453724342954000000	      0.70642144602042467000	      0.96612253959594718000	     -0.32952941216727971000	     50.60584337543278400000	     -0.77230238252869821000	    -11.39099543355195200000	   -120.09919271678064000000	     -3.91510451854275180000	      0.00000000000012663901	      0.00000000000012523860	     -1.52363393237989310000	     -1.00389462387968110000	     -2.72091206383834510000	    -23.54564447859824100000	      7.40199345007790740000	     -0.00000000000003534629	      0.00000000000005843711	     -5.73413388304035010000	      0.45013675969090933000	    -16.43225438656975600000	    -17.07286606532534300000	    -21.29676136655792700000	     13.58949670613467800000	     41.27563004283801700000	     76.58477392157314500000	      0.00000000000002250823	      0.00000000000008128159	      2.71513366504774600000	    -36.07162062955839600000	     22.29094006510695200000	    102.50824648019571000000	     86.58123624967949200000	     -0.00000000000002078651	     -0.00000000000002785609
      2.07600000000000010000	     -5.05732189340755230000	     -2.93843874861168790000	      5.36814040836647430000	      0.70660179857115157000	      0.96685446391345808000	     -0.32951371783599154000	     50.74683904366097700000	     -0.63890010576376988000	    -11.37653433742568700000	   -119.55205120515960000000	     -3.86027982453602720000	      0.00000000000012693385	      0.00000000000012550731	     -2.10035762295490520000	     -1.12869270800539080000	     -2.77333082122789690000	    -23.07395083811090000000	      6.73421304350152020000	     -0.00000000000003523054	      0.00000000000005970268	     -5.79610838110312180000	      0.58299738809408519000	    -16.51170862086388500000	    -17.24319597628767700000	    -21.41032293635477000000	     13.64480991020895400000	     41.31448425985387700000	     76.51414602877736100000	      0.00000000000002273899	      0.00000000000008137974	      2.82772518533031910000	    -35.95775756467909900000	     22.15686486005474300000	    102.79301797212257000000	     86.46322744548587000000	     -0.00000000000002084906	     -0.00000000000002793634
      2.07700000000000000000	     -4.98398584952608470000	     -3.01962770723885310000	      5.33224884278464280000	      0.70678822920645212000	      0.96758575083761822000	     -0.32949988238091954000	     50.88308150398556500000	     -0.50677747768139447000	    -11.36462336086731100000	   -118.99761146385919000000	     -3.80730433627303010000	      0.00000000000012722587	      0.00000000000012577596	     -2.67149678167101400000	     -1.25416499108551930000	     -2.82858310701167030000	    -22.60355072596066600000	      6.05049113890655480000	     -0.00000000000003508731	      0.00000000000006095827	     -5.85396921475832870000	      0.71738474788551099000	    -16.59024700389081600000	    -17.41560164145983700000	    -21.52536911414543400000	     13.69805093030042000000	     41.35804037007501000000	     76.44974602189330400000	      0.00000000000002298275	      0.00000000000008148015	      2.93771862327650670000	    -35.84478046653633500000	     22.02622653916828100000	    103.07952911711008000000	     86.34001891518605000000	     -0.00000000000002090902	     -0.00000000000002801634
